<mxfile host="65bd71144e" modified="2020-11-12T05:38:36.653Z" agent="5.0 (Windows NT 10.0; Win64; x64) AppleWebKit/537.36 (KHTML, like Gecko) Code/1.51.0 Chrome/83.0.4103.122 Electron/9.3.3 Safari/537.36" version="13.6.5" etag="4P4vR75bbuSGxwD4fJMz" pages="4">
    <diagram id="A6VnIacnH0QObHJu_WG8" name="RoboDog2ユースケース図">
        <mxGraphModel dx="1647" dy="575" grid="1" gridSize="10" guides="1" tooltips="1" connect="1" arrows="1" fold="1" page="1" pageScale="1" pageWidth="827" pageHeight="1169" math="0" shadow="0">
            <root>
                <mxCell id="0"/>
                <mxCell id="1" parent="0"/>
                <mxCell id="2" value="&lt;span style=&quot;font-size: 14px&quot;&gt;ユーザ&lt;br&gt;&lt;br&gt;&lt;/span&gt;" style="shape=umlActor;verticalLabelPosition=bottom;verticalAlign=top;html=1;outlineConnect=0;" vertex="1" parent="1">
                    <mxGeometry x="-800" y="270" width="30" height="60" as="geometry"/>
                </mxCell>
                <mxCell id="4" value="&lt;font style=&quot;font-size: 18px&quot;&gt;名前を変更する&lt;/font&gt;" style="ellipse;whiteSpace=wrap;html=1;" vertex="1" parent="1">
                    <mxGeometry x="-600" y="50" width="360" height="80" as="geometry"/>
                </mxCell>
                <mxCell id="5" value="&lt;font size=&quot;3&quot;&gt;時刻に応じた挨拶をする&lt;/font&gt;" style="ellipse;whiteSpace=wrap;html=1;" vertex="1" parent="1">
                    <mxGeometry x="-600" y="160" width="360" height="80" as="geometry"/>
                </mxCell>
                <mxCell id="6" value="&lt;font style=&quot;font-size: 16px&quot;&gt;２つの整数の足し算をする&lt;/font&gt;" style="ellipse;whiteSpace=wrap;html=1;fontSize=16;" vertex="1" parent="1">
                    <mxGeometry x="-600" y="280" width="360" height="80" as="geometry"/>
                </mxCell>
                <mxCell id="7" value="&lt;font style=&quot;font-size: 16px&quot;&gt;３つの整数の合計と平均を求める&lt;/font&gt;" style="ellipse;whiteSpace=wrap;html=1;" vertex="1" parent="1">
                    <mxGeometry x="-600" y="400" width="360" height="80" as="geometry"/>
                </mxCell>
                <mxCell id="8" value="&lt;font style=&quot;font-size: 16px&quot;&gt;指定した言語で挨拶をする&lt;/font&gt;" style="ellipse;whiteSpace=wrap;html=1;" vertex="1" parent="1">
                    <mxGeometry x="-600" y="520" width="360" height="80" as="geometry"/>
                </mxCell>
                <mxCell id="10" value="" style="endArrow=none;html=1;" edge="1" parent="1">
                    <mxGeometry width="50" height="50" relative="1" as="geometry">
                        <mxPoint x="-750" y="250" as="sourcePoint"/>
                        <mxPoint x="-610" y="110" as="targetPoint"/>
                    </mxGeometry>
                </mxCell>
                <mxCell id="12" value="" style="endArrow=none;html=1;" edge="1" parent="1">
                    <mxGeometry width="50" height="50" relative="1" as="geometry">
                        <mxPoint x="-750" y="270" as="sourcePoint"/>
                        <mxPoint x="-620" y="210" as="targetPoint"/>
                    </mxGeometry>
                </mxCell>
                <mxCell id="13" value="" style="endArrow=none;html=1;" edge="1" parent="1">
                    <mxGeometry width="50" height="50" relative="1" as="geometry">
                        <mxPoint x="-750" y="300" as="sourcePoint"/>
                        <mxPoint x="-610" y="310" as="targetPoint"/>
                    </mxGeometry>
                </mxCell>
                <mxCell id="14" value="" style="endArrow=none;html=1;" edge="1" parent="1">
                    <mxGeometry width="50" height="50" relative="1" as="geometry">
                        <mxPoint x="-750" y="320" as="sourcePoint"/>
                        <mxPoint x="-610" y="430" as="targetPoint"/>
                    </mxGeometry>
                </mxCell>
                <mxCell id="15" value="" style="endArrow=none;html=1;" edge="1" parent="1">
                    <mxGeometry width="50" height="50" relative="1" as="geometry">
                        <mxPoint x="-750" y="350" as="sourcePoint"/>
                        <mxPoint x="-610" y="550" as="targetPoint"/>
                    </mxGeometry>
                </mxCell>
            </root>
        </mxGraphModel>
    </diagram>
    <diagram id="fAltFa3LQZULfdGsgU6e" name="ユースケース記述">
        <mxGraphModel dx="820" dy="575" grid="1" gridSize="10" guides="1" tooltips="1" connect="1" arrows="1" fold="1" page="1" pageScale="1" pageWidth="827" pageHeight="1169" math="0" shadow="0">
            <root>
                <mxCell id="DMFz8FDdF91B6Bycr9DK-0"/>
                <mxCell id="DMFz8FDdF91B6Bycr9DK-1" parent="DMFz8FDdF91B6Bycr9DK-0"/>
                <mxCell id="DMFz8FDdF91B6Bycr9DK-2" value="&lt;font style=&quot;font-size: 16px&quot;&gt;①　RoboDog2システムメニューの「３つの整数の合計と平均を求める」を選択すると、「３つの整数入力画面」を表示する。&lt;br&gt;&lt;br&gt;②「３つの整数入力画面」で３つの整数を入力すると、３つの整数をRoboDog2に登録する。&lt;br&gt;&lt;br&gt;③合計の結果を受け取り、「合計の結果表示画面」に合計結果を表示する。&lt;br&gt;&lt;br&gt;④平均の結果を受け取り、「平均の結果表示画面」に平均結果を表示する。&lt;/font&gt;" style="rounded=0;whiteSpace=wrap;html=1;align=left;" vertex="1" parent="DMFz8FDdF91B6Bycr9DK-1">
                    <mxGeometry x="40" y="100" width="720" height="230" as="geometry"/>
                </mxCell>
                <mxCell id="DMFz8FDdF91B6Bycr9DK-3" value="&lt;div&gt;&lt;span&gt;&lt;font style=&quot;font-size: 16px&quot;&gt;（１）合計と平均を求めるユースケース記述&lt;/font&gt;&lt;/span&gt;&lt;/div&gt;" style="text;html=1;strokeColor=none;fillColor=none;align=left;verticalAlign=middle;whiteSpace=wrap;rounded=0;" vertex="1" parent="DMFz8FDdF91B6Bycr9DK-1">
                    <mxGeometry x="40" y="50" width="330" height="60" as="geometry"/>
                </mxCell>
            </root>
        </mxGraphModel>
    </diagram>
    <diagram id="We73UAYVFOvIxXGu6hhA" name="ユースケース記述">
        <mxGraphModel dx="820" dy="575" grid="1" gridSize="10" guides="1" tooltips="1" connect="1" arrows="1" fold="1" page="1" pageScale="1" pageWidth="827" pageHeight="1169" math="0" shadow="0">
            <root>
                <mxCell id="yYwyRer4t_-Zq1QraOYE-0"/>
                <mxCell id="yYwyRer4t_-Zq1QraOYE-1" parent="yYwyRer4t_-Zq1QraOYE-0"/>
                <mxCell id="0nfJ1FiA_mB-69nMd8H1-0" value="&lt;font style=&quot;font-size: 16px&quot;&gt;①　RoboDog2システムメニューの「指定した言語で挨拶をする」を選択すると、「言語入力画面」「挨拶入力画面」を表示する。&lt;br&gt;&lt;br&gt;②「言語入力画面」で言語を、「挨拶入力画面」で挨拶を入力すると、RoboDog2に言語と挨拶を登録する。&lt;br&gt;&lt;br&gt;③「言語入力画面」に英語、ドイツ語、フランス語、スペイン語、中国語、韓国語などの言語を入力し、「挨拶入力画面」にこんにちは、ありがとうございます、さようならのどれかを入力すると指定した言語をで答えてくれる&lt;br&gt;&lt;/font&gt;" style="rounded=0;whiteSpace=wrap;html=1;align=left;" vertex="1" parent="yYwyRer4t_-Zq1QraOYE-1">
                    <mxGeometry x="40" y="100" width="720" height="230" as="geometry"/>
                </mxCell>
                <mxCell id="0nfJ1FiA_mB-69nMd8H1-1" value="&lt;div&gt;&lt;span&gt;&lt;font style=&quot;font-size: 16px&quot;&gt;（１）指定した言語で挨拶をするユースケース記述&lt;/font&gt;&lt;/span&gt;&lt;/div&gt;" style="text;html=1;strokeColor=none;fillColor=none;align=left;verticalAlign=middle;whiteSpace=wrap;rounded=0;" vertex="1" parent="yYwyRer4t_-Zq1QraOYE-1">
                    <mxGeometry x="40" y="50" width="380" height="60" as="geometry"/>
                </mxCell>
            </root>
        </mxGraphModel>
    </diagram>
    <diagram id="ynD8bdY5ilexfxR3oLAX" name="分析モデル">
        <mxGraphModel dx="820" dy="575" grid="1" gridSize="10" guides="1" tooltips="1" connect="1" arrows="1" fold="1" page="1" pageScale="1" pageWidth="827" pageHeight="1169" math="0" shadow="0">
            <root>
                <mxCell id="LjCGdbT0OhC5B1JyvC5n-0"/>
                <mxCell id="LjCGdbT0OhC5B1JyvC5n-1" parent="LjCGdbT0OhC5B1JyvC5n-0"/>
            </root>
        </mxGraphModel>
    </diagram>
</mxfile>